<?xml version="1.0" standalone="no"?><!DOCTYPE svg PUBLIC "-//W3C//DTD SVG 1.1//EN" "http://www.w3.org/Graphics/SVG/1.1/DTD/svg11.dtd"><svg t="1491816668381" class="icon" style="" viewBox="0 0 1000 1000" version="1.1" xmlns="http://www.w3.org/2000/svg" p-id="3392" xmlns:xlink="http://www.w3.org/1999/xlink" width="16" height="16"><defs><style type="text/css"></style></defs><path d="M941.428 334.0224c16.3282 0 30.1772 4.826 41.5312 14.477 11.3625 9.6543 17.042 21.4694 17.042 35.4452v294.5485319728868c0 13.3129-5.6794 24.7931-17.042 34.4474-11.354 9.6543-25.2042 14.4792-41.5312 14.4792h-19.167332367914536c-16.3294 0-30.1748-4.8249-41.5337-14.4792-11.3601-9.6555-17.0395-21.1345-17.0395-34.4474V383.94458891026454c0-13.9758 5.6794-25.7909 17.0395-35.4452 11.3589-9.6509 25.2042-14.477 41.5337-14.477H941.4280173289027zM77.7405 334.0224c16.3343 0 29.8234 4.826 40.4722 14.477 10.6488 9.6543 15.9744 21.4694 15.9744 35.4452v294.5485319728868c0 13.3129-5.3256 24.7931-15.9744 34.4474-10.6488 9.6543-24.1379 14.4792-40.4722 14.4792H58.57198267109738c-16.3282 0-30.1748-4.8249-41.5325-14.4792C5.6794 703.2862 0 691.8071 0 678.4943V383.94458891026454c0-13.9758 5.6794-25.7909 17.0395-35.4452 11.3577-9.6509 25.2042-14.477 41.5325-14.477H77.7405309317021zM665.6015 102.3798c12.7827 5.3283 26.0967 12.6511 39.9384 21.9637 13.8417 9.3217 27.1533 20.3053 39.9348 32.9519 12.7839 12.6465 23.9628 26.4583 33.5477 41.4353 9.5837 14.9781 16.5094 30.7866 20.7687 47.4266H194.88571216658704c11.3637-35.2778 29.286-64.2317 53.7838-86.8674 24.4917-22.6312 49.1658-40.6015 74.0114-53.9167l-54.3078-79.8773c-1.4202-1.3315-1.6025-3.8271-0.5362-7.4891 1.0651-3.6608 4.7943-7.4891 11.1862-11.4813 5.677-4.6848 11.0026-6.8432 15.9744-6.4879 4.9645 0.3349 8.1635 1.1641 9.5825 2.4967l55.3754 81.8705c19.8798-8.6543 40.8248-15.3084 62.8386-19.9682 22.0052-4.6575 44.7242-6.989 68.1556-6.989 48.277 0 93.3599 9.3183 135.2486 27.9561l56.4442-82.8695c1.4202-1.3327 4.083-2.0001 7.986-2.0001 3.9067 0 9.7612 2.0001 17.5709 5.9913 7.0996 3.3294 11.1801 6.3238 12.2453 8.9857 1.0688 2.6619 0.89 4.662-0.5301 5.9924L665.6015 102.3798zM368.4775 188.2494c9.2311 0 17.042-2.999 23.4278-8.9903 6.3883-5.9867 9.5873-13.3117 9.5873-21.9637 0-8.6531-3.199-15.9759-9.5873-21.9683-6.3859-5.9924-14.1968-8.9857-23.4278-8.9857-9.2298 0-17.0395 2.9933-23.4303 8.9857-6.3919 5.9924-9.5837 13.3152-9.5837 21.9683 0 8.652 3.1917 15.977 9.5837 21.9637C351.438 185.2504 359.2477 188.2494 368.4775 188.2494M630.4622 184.2514c9.2311 0 17.0359-2.9945 23.4254-8.9857 6.3919-5.9913 9.5849-13.3095 9.5849-21.9626 0-8.6543-3.1929-15.977-9.5849-21.9694-6.3895-5.9913-14.1943-8.9835-23.4254-8.9835s-17.0395 2.9922-23.4315 8.9835c-6.3919 5.9924-9.5825 13.3152-9.5825 21.9694 0 8.6531 3.1905 15.9714 9.5825 21.9626C613.4227 181.257 621.2312 184.2514 630.4622 184.2514M799.7899 309.0585l1.0651 449.3107c0 14.6433-5.1481 26.9595-15.4443 36.9441-10.295 9.9858-22.894 14.977-37.8033 14.977h-14.915355630373487v139.7852034348315c0 13.3152-5.142 24.9616-15.437 34.9474-10.2986 9.9858-22.8965 14.977-37.8118 14.977h-30.881242545057944c-14.1968 0-26.4481-4.9923-36.7394-14.977-10.2962-9.9858-15.4443-21.6311-15.4443-34.9474V810.2915096241574H400.42750786986545v139.7852034348315c0 13.3152-5.1469 24.9616-15.4443 34.9474-10.2962 9.9858-22.8953 14.977-37.8045 14.977h-30.881242545057944c-14.2016 0-26.4493-4.9923-36.7443-14.977-10.2974-9.9858-15.4455-21.6311-15.4455-34.9474V810.2915096241574h-11.707830713692532c-14.9166 0-27.5144-4.9923-37.8106-14.977-10.2962-9.9847-15.4382-22.2998-15.4382-36.9441V309.05851947782725H799.7898937431378z" p-id="3393"></path></svg>