<?xml version="1.0" standalone="no"?><!DOCTYPE svg PUBLIC "-//W3C//DTD SVG 1.1//EN" "http://www.w3.org/Graphics/SVG/1.1/DTD/svg11.dtd"><svg t="1491816691902" class="icon" style="" viewBox="0 0 1024 1024" version="1.1" xmlns="http://www.w3.org/2000/svg" p-id="1472" xmlns:xlink="http://www.w3.org/1999/xlink" width="16" height="16"><defs><style type="text/css"></style></defs><path d="M517.392097 360.456569 428.783963 331.810276C428.783963 331.810276 296.493731 280.356061 197.448509 389.075727 96.176766 500.18901 103.92032 637.19364 148.226529 761.237601 192.528454 885.310126 276.884917 1021.919152 369.716158 1023.681517 441.443288 1025.042566 447.060292 984.825216 546.909575 985.522165 546.909575 985.522165 582.770998 990.275124 635.517709 1009.355515 688.265848 1028.467325 733.036214 1031.753551 788.109419 975.949121 866.85459 896.21137 906.240744 775.59788 906.240744 775.59788 906.240744 775.59788 774.748861 727.168536 778.273592 584.713997 781.766903 442.259459 881.610473 408.156117 881.610473 408.156117 881.610473 408.156117 806.391461 280.027582 635.517709 322.270081L517.392097 360.456569ZM512.372069 235.352904C512.372069 235.352904 493.325954 29.14901 748.556169 0 748.556169 0 765.013006 218.900351 512.372069 235.352904L512.372069 235.352904Z" p-id="1473"></path></svg>