<?xml version="1.0" standalone="no"?><!DOCTYPE svg PUBLIC "-//W3C//DTD SVG 1.1//EN" "http://www.w3.org/Graphics/SVG/1.1/DTD/svg11.dtd"><svg t="1492142607592" class="icon" style="" viewBox="0 0 1024 1024" version="1.1" xmlns="http://www.w3.org/2000/svg" p-id="2857" xmlns:xlink="http://www.w3.org/1999/xlink" width="25" height="25"><defs><style type="text/css"></style></defs><path d="M885.392618 961.714607 136.497096 961.714607C90.710298 961.714607 62.445263 925.583963 73.188534 881.012178L152.100418 553.278461C159.710235 507.491663 202.811216 470.401799 248.981702 470.401799L313.441329 470.401799 502.407794 709.695373C516.540311 727.664772 539.817398 727.281084 553.694124 709.695373L742.59664 470.401799 789.342659 470.401799C835.257353 470.401799 878.614126 507.299819 886.223943 553.278461L951.770686 880.052957C960.915256 925.456067 931.115469 961.714607 885.392618 961.714607ZM656.71442 470.401799 662.277899 470.401799 528.050959 637.689877 393.824018 470.401799 399.387498 470.401799C437.884219 490.481484 481.62468 501.800287 528.050959 501.800287 574.413289 501.800287 618.15375 490.481484 656.71442 470.401799ZM528.050959 439.067258C407.508899 439.067258 309.796291 340.779117 309.796291 219.533629 309.796291 98.288141 407.508899 0 528.050959 0 648.52907 0 746.241679 98.288141 746.241679 219.533629 746.241679 340.779117 648.52907 439.067258 528.050959 439.067258Z" p-id="2858" fill="#bfbfbf"></path></svg>